<?xml version="1.0" encoding="UTF-8" standalone="no"?>
<svg width="1374px" height="279px" viewBox="0 0 1374 279" version="1.1" xmlns="http://www.w3.org/2000/svg" xmlns:xlink="http://www.w3.org/1999/xlink" style="background: #EFE3E4;">
    <!-- Generator: Sketch 3.8.1 (29687) - http://www.bohemiancoding.com/sketch -->
    <title>Group 4</title>
    <desc>Created with Sketch.</desc>
    <defs></defs>
    <g id="Symbols" stroke="none" stroke-width="1" fill="none" fill-rule="evenodd">
        <g id="Group-4">
            <g transform="translate(173.000000, 0.000000)">
                <rect id="Rectangle-1" fill-opacity="0.217079937" fill="#FAE7E9" x="0" y="27.9454945" width="1028" height="251.054505"></rect>
                <path d="M286.874916,34.8870221 C283.584517,35.8741417 280.211909,36.7131808 276.75699,37.4041646 C273.302072,38.0951483 269.951399,38.6161203 266.704872,38.9670962 C264.445465,39.2083921 262.26835,39.3948452 260.173463,39.5264612 C258.078576,39.6580771 256.055011,39.7238841 254.102708,39.7238841 L253.115593,39.7238841 C251.82137,39.7019481 250.735554,39.3893649 249.858115,38.7861251 C248.980675,38.1828854 248.39938,37.3438463 248.114212,36.2689827 C247.872916,35.281863 247.856464,34.305726 248.064856,33.3405424 C248.273248,32.3753587 248.69551,31.4321252 249.331653,30.5108136 C249.638757,30.0720937 249.967792,29.6772518 250.318768,29.3262759 C250.669744,28.9753 251.020715,28.6682008 251.37169,28.4049688 C249.046475,28.6462648 246.787102,28.9643319 244.593503,29.3591797 C242.399904,29.7540276 240.233757,30.2091926 238.094998,30.7246884 C235.956239,31.2401842 233.833963,31.8050275 231.728108,32.4192353 C229.622253,33.0334431 227.494493,33.6586095 225.344766,34.2947532 L223.271825,34.8870221 L222.844076,33.5050615 C223.216987,33.3953815 223.573442,33.296671 223.91345,33.2089271 C224.253458,33.1211831 224.598944,33.0224726 224.94992,32.9127927 C227.472559,32.1669689 229.973225,31.4430921 232.451992,30.7411403 C234.930759,30.0391886 237.442393,29.4030543 239.986968,28.8327186 C242.531543,28.2623828 245.130919,27.7852821 247.785174,27.4014022 C250.439429,27.0175224 253.203322,26.7707462 256.076937,26.6610662 C256.822761,26.6171942 257.541154,26.6775173 258.232138,26.8420372 C258.923121,27.0065572 259.542804,27.3081725 260.091204,27.7468924 C260.573796,28.1198042 261.007025,28.6407762 261.390905,29.309824 C261.774785,29.9788717 261.955754,30.675329 261.933818,31.3992168 C261.889946,32.3644004 261.451233,33.1540843 260.617665,33.7682921 C259.981521,34.1850759 259.246676,34.4483039 258.413109,34.5579838 C257.579541,34.6676638 256.756954,34.7444386 255.945322,34.7883106 C255.638218,34.8102466 255.347571,34.8266983 255.073371,34.8376663 C254.799171,34.8486343 254.541427,34.8760539 254.300131,34.9199259 C254.190451,34.9418619 254.080773,34.9583136 253.971093,34.9692816 C253.861413,34.9802496 253.751734,34.9967014 253.642054,35.0186374 C253.291078,35.0625093 252.923656,35.1118646 252.539776,35.1667046 C252.155896,35.2215445 251.78299,35.2928355 251.421046,35.3805794 C251.059102,35.4683234 250.724583,35.5834856 250.41748,35.7260696 C250.110376,35.8686535 249.847148,36.0386549 249.627788,36.2360788 C249.78134,36.6747987 250.000696,37.0257693 250.285864,37.2890012 C250.571032,37.5522331 250.883615,37.7606219 251.223623,37.9141738 C251.563631,38.0677258 251.903634,38.1664363 252.243642,38.2103082 C252.58365,38.2541802 252.885265,38.2761159 253.148497,38.2761159 C255.166608,38.2980519 257.310819,38.2486966 259.581194,38.1280487 C261.85157,38.0074007 264.182234,37.8154637 266.573257,37.5522318 C269.775912,37.2012559 273.077229,36.6802839 276.477308,35.9893002 C279.877387,35.2983164 283.211607,34.4702451 286.48007,33.5050615 L286.874916,34.8870221 Z M253.34592,28.8327186 C253.060752,28.9643345 252.687846,29.2001429 252.22719,29.5401508 C251.766534,29.8801586 251.322337,30.3024201 250.894585,30.806948 C250.466833,31.3114758 250.104895,31.8872869 249.808759,32.5343987 C249.512623,33.1815105 249.364557,33.8889356 249.364557,34.6566953 C249.934893,34.3057194 250.587479,34.0644271 251.322335,33.9328112 C252.05719,33.8011952 252.764616,33.6805491 253.444631,33.5708691 C253.554311,33.5708691 253.66399,33.5653852 253.77367,33.5544172 C253.88335,33.5434492 253.993028,33.5269975 254.102708,33.5050615 C254.36594,33.4611895 254.645619,33.428286 254.941755,33.40635 C255.237891,33.384414 255.550474,33.3624784 255.879514,33.3405424 C256.581466,33.2966704 257.294375,33.2308634 258.018263,33.1431194 C258.742151,33.0553755 259.334413,32.8579545 259.795069,32.5508506 C260.255725,32.2656827 260.497017,31.8598729 260.518953,31.3334091 C260.540889,30.9385613 260.425727,30.5108159 260.173463,30.05016 C259.921199,29.5895042 259.597648,29.1946623 259.2028,28.8656224 C258.500849,28.3391586 257.590519,28.0759306 256.471783,28.0759306 C255.923383,28.0759306 255.396927,28.1417376 254.8924,28.2733536 C254.387872,28.4049695 253.872384,28.5914226 253.34592,28.8327186 L253.34592,28.8327186 Z M330.834424,39.8554994 C330.395704,39.8554994 329.8857,39.8280798 329.304396,39.7732399 C328.723093,39.7183999 328.119862,39.6087216 327.494686,39.4442016 C326.86951,39.2796817 326.249828,39.0493572 325.63562,38.7532213 C325.021412,38.4570854 324.473021,38.0567596 323.990429,37.5522318 C322.564589,36.1702643 321.972326,34.2618616 322.213622,31.8269665 C322.257494,31.3005027 322.339753,30.6972719 322.460401,30.0172562 C322.581049,29.3372404 322.707179,28.7120741 322.838795,28.1417383 L316.652876,28.1746421 C316.016732,28.328194 315.172209,28.5146472 314.119282,28.7340071 C313.066354,28.953367 311.848925,29.2056271 310.466957,29.490795 C308.86563,29.8198349 307.083357,30.1872573 305.120086,30.5930731 C303.156815,30.998889 301.138734,31.4376022 299.065783,31.909226 C296.992831,32.3808499 294.914427,32.8744023 292.830508,33.3898981 C290.746589,33.9053939 288.772379,34.4373337 286.90782,34.9857335 L286.48007,33.603773 C288.344629,33.0553732 290.329807,32.5179494 292.435662,31.9914856 C294.541517,31.4650218 296.636373,30.9659855 298.720292,30.4943616 C300.804212,30.0227378 302.83326,29.5840246 304.8075,29.1782087 C306.781739,28.7723928 308.580463,28.4049705 310.203727,28.0759306 C311.60763,27.7907627 312.841511,27.5385026 313.905407,27.3191427 C314.969303,27.0997828 315.797374,26.9133296 316.389646,26.7597777 L316.455453,26.7268739 L324.681409,26.69397 L324.451082,27.6152771 C324.385274,27.834637 324.313983,28.1198006 324.237208,28.4707765 C324.160432,28.8217524 324.083657,29.2001426 324.006881,29.6059584 C323.930105,30.0117743 323.858814,30.417584 323.793006,30.8233999 C323.727198,31.2292157 323.683327,31.6076059 323.661391,31.9585818 C323.463967,33.9328211 323.913648,35.4573496 325.010447,36.5322132 C325.558847,37.102549 326.211433,37.5193266 326.968225,37.7825585 C327.725017,38.0457904 328.459861,38.2212757 329.172781,38.3090197 C329.885701,38.3967637 330.505383,38.4296672 331.031847,38.4077312 C331.558311,38.3857952 331.887346,38.3748274 332.018962,38.3748274 C334.102881,38.1554674 336.241608,37.7386898 338.435207,37.1244821 C340.628807,36.5102743 342.88818,35.8302687 345.213395,35.084445 C346.003091,34.8431491 346.803742,34.5963729 347.615374,34.344109 C348.427006,34.0918451 349.249593,33.8450689 350.083161,33.603773 L350.478007,34.9857335 C348.832807,35.4902614 347.220536,35.9838138 345.641145,36.4664056 C343.272058,37.2122293 340.974297,37.8977188 338.747794,38.5228946 C336.52129,39.1480703 334.32224,39.5703318 332.150577,39.7896918 C332.040897,39.8116278 331.870896,39.8280795 331.640568,39.8390475 C331.41024,39.8500155 331.141528,39.8554994 330.834424,39.8554994 L330.834424,39.8554994 Z M409.079716,34.9528297 C408.684868,35.0625097 408.290026,35.1776719 407.895179,35.2983199 C407.500331,35.4189678 407.105489,35.5450979 406.710641,35.6767138 C405.218994,36.1154337 403.716401,36.5541469 402.202817,36.9928668 C400.689234,37.4315866 399.203093,37.8373964 397.744349,38.2103082 C396.285606,38.5832201 394.854304,38.9067711 393.4504,39.180971 C392.046497,39.4551709 390.708421,39.6580758 389.436134,39.7896918 C389.326454,39.8116278 389.156452,39.8280795 388.926124,39.8390475 C388.695797,39.8500155 388.427085,39.8554994 388.119981,39.8554994 C387.659325,39.8554994 387.138353,39.8280798 386.557049,39.7732399 C385.975745,39.7183999 385.372515,39.6087216 384.747339,39.4442016 C384.122163,39.2796817 383.502481,39.0493572 382.888273,38.7532213 C382.274065,38.4570854 381.725673,38.0567596 381.243082,37.5522318 C379.817242,36.1263923 379.224979,34.196054 379.466275,31.7611588 C379.532083,31.0811431 379.630794,30.434041 379.76241,29.8198333 C379.894026,29.2056255 380.02564,28.6462661 380.157255,28.1417383 C377.83204,28.2733542 375.654926,28.4927108 373.625847,28.7998147 C371.596767,29.1069186 369.628042,29.4798249 367.71961,29.9185447 C365.811179,30.3572646 363.93568,30.850817 362.093056,31.3992168 C360.250433,31.9476166 358.363966,32.5289117 356.433599,33.1431194 C355.468415,33.4502233 354.497762,33.7518387 353.52161,34.0479746 C352.545459,34.3441105 351.530934,34.6457258 350.478007,34.9528297 L350.050257,33.5708691 C351.103185,33.2637652 352.117709,32.9621499 353.093861,32.666014 C354.070012,32.3698781 355.040665,32.0682627 356.005849,31.7611588 C358.02396,31.1250151 359.99817,30.5217843 361.928537,29.9514486 C363.858905,29.3811128 365.82763,28.8656247 367.834774,28.4049688 C369.841917,27.944313 371.925805,27.5604389 374.0865,27.253335 C376.247195,26.9462311 378.577859,26.7488102 381.078563,26.6610662 L382.098581,26.6281624 C382.010837,26.9352663 381.939546,27.1820425 381.884706,27.3684984 C381.829866,27.5549543 381.769543,27.7688271 381.703735,28.010123 C381.572119,28.4927148 381.424053,29.0740099 381.259534,29.7540256 C381.095014,30.4340414 380.979851,31.1469504 380.914043,31.8927741 C380.716619,33.8889494 381.166301,35.4354136 382.2631,36.5322132 C382.8115,37.102549 383.46957,37.5193266 384.23733,37.7825585 C385.005089,38.0457904 385.739934,38.2212757 386.441886,38.3090197 C387.143837,38.3967637 387.76352,38.4296672 388.300952,38.4077312 C388.838384,38.3857952 389.172902,38.3748274 389.304518,38.3748274 C390.532934,38.2432114 391.832622,38.0403065 393.203621,37.7661066 C394.574621,37.4919067 395.983987,37.1683557 397.431763,36.7954438 C398.879538,36.422532 400.349228,36.0167222 401.840875,35.5780024 C403.332523,35.1392825 404.824148,34.7005693 406.315795,34.2618494 L408.68487,33.5708691 L409.079716,34.9528297 Z M387.264481,12.907268 C387.001249,12.907268 386.748989,12.8469449 386.507693,12.726297 C386.266397,12.605649 386.079944,12.4356476 385.948328,12.2162877 C385.663161,11.7556319 385.641225,11.294983 385.882521,10.8343271 C385.992201,10.5710952 386.167686,10.3627064 386.408982,10.2091545 C386.650278,10.0556025 386.924474,9.97882772 387.231578,9.97882772 C387.692233,9.97882772 388.054172,10.1323774 388.317404,10.4394812 C388.580636,10.7685211 388.690314,11.1304596 388.646442,11.5253074 C388.60257,12.0078992 388.438052,12.3588699 388.152885,12.5782298 C387.867717,12.7975897 387.571585,12.907268 387.264481,12.907268 L387.264481,12.907268 Z M485.811433,34.9857335 C484.078489,35.4902614 482.307184,36.0002655 480.497465,36.5157613 C478.687746,37.0312571 476.905473,37.5083578 475.150594,37.9470776 C473.395714,38.3857975 471.690217,38.7696716 470.034049,39.0987115 C468.377882,39.4277514 466.847869,39.6690436 465.443966,39.8225956 L464.884601,39.8225956 C464.160713,39.8225956 463.436836,39.6909816 462.712949,39.4277497 C461.989061,39.1645178 461.352927,38.7916115 460.804527,38.3090197 C459.707727,37.387708 459.126432,36.2360857 459.060624,34.8541182 C459.060624,34.6347583 459.05514,34.2892716 459.044172,33.8176478 C459.033204,33.346024 459.038688,32.759245 459.060624,32.0572933 C459.08256,31.3992135 458.98385,30.8014667 458.76449,30.2640349 C458.54513,29.7266031 458.216095,29.2933737 457.777375,28.9643338 C457.141231,28.43787 456.121223,28.1746421 454.717319,28.1746421 L454.684416,28.1746421 C453.456,28.1746421 452.430508,28.3501274 451.607908,28.7011033 C450.785308,29.0520791 450.099819,29.5236959 449.551419,30.1159677 C449.003019,30.7082395 448.547854,31.3992128 448.18591,32.1889085 C447.823967,32.9786043 447.500416,33.8231273 447.215248,34.722503 C447.083632,35.1831588 446.935566,35.6547755 446.771046,36.1373674 C446.606526,36.6199592 446.442009,37.0751242 446.277489,37.502876 C446.112969,37.9306279 445.959419,38.314502 445.816835,38.6545099 C445.674251,38.9945177 445.559089,39.2522618 445.471345,39.4277497 L444.188096,38.8354809 C444.341648,38.506441 444.539069,38.0348242 444.780365,37.4206165 C445.021661,36.8064087 445.257469,36.1593066 445.487797,35.4792909 C445.718125,34.7992751 445.915546,34.1466892 446.080066,33.5215134 C446.244586,32.8963376 446.326844,32.4082691 446.326844,32.0572933 C446.34878,31.3992135 446.25007,30.8014667 446.03071,30.2640349 C445.81135,29.7266031 445.482315,29.2933737 445.043595,28.9643338 C444.692619,28.679166 444.253906,28.4652932 443.727442,28.3227093 C443.200979,28.1801253 442.619684,28.1307701 441.98354,28.1746421 C439.153797,28.284322 436.417323,28.5310983 433.774036,28.9149781 C431.130749,29.298858 428.542341,29.7704747 426.008733,30.3298425 C423.475126,30.8892103 420.974461,31.5198606 418.506662,32.2218124 C416.038863,32.9237641 413.543681,33.647641 411.021042,34.3934647 C410.692002,34.5031447 410.362967,34.6018552 410.033927,34.6895991 C409.704887,34.7773431 409.38682,34.8760536 409.079716,34.9857335 L408.651967,33.603773 C408.981006,33.494093 409.310041,33.3953825 409.639081,33.3076385 C409.968121,33.2198946 410.297156,33.1321519 410.626196,33.044408 C413.170771,32.2985842 415.687888,31.5692234 418.177623,30.8563037 C420.667359,30.143384 423.18996,29.5017658 425.745503,28.93143 C428.301046,28.3610942 430.916874,27.8785096 433.593065,27.4836618 C436.269256,27.0888139 439.055085,26.8365538 441.950636,26.7268739 C442.740332,26.6830019 443.48066,26.7597767 444.171644,26.9572006 C444.862628,27.1546245 445.449407,27.4397882 445.931999,27.8127 C446.74363,28.4488438 447.281054,29.2933668 447.544286,30.3462944 C447.829454,29.9075746 448.125585,29.5237005 448.432689,29.1946606 C449.946273,27.5275252 452.030161,26.69397 454.684416,26.69397 L454.717319,26.69397 C455.309591,26.69397 455.973145,26.7707449 456.708001,26.9242968 C457.442856,27.0778487 458.095442,27.3739802 458.665778,27.8127 C459.279986,28.2952919 459.746119,28.9094904 460.064191,29.6553141 C460.382263,30.4011379 460.530328,31.2127574 460.508392,32.0901971 C460.46452,33.4502286 460.46452,34.3495908 460.508392,34.7883106 C460.530328,35.3805824 460.67291,35.8741348 460.936142,36.2689827 C461.199374,36.6638305 461.462602,36.9818976 461.725834,37.2231935 C462.208426,37.6399774 462.767785,37.9525606 463.403929,38.1609525 C464.040073,38.3693444 464.665239,38.4406353 465.279447,38.3748274 C466.661414,38.2432114 468.164007,38.0128869 469.787271,37.6838471 C471.410534,37.3548072 473.094096,36.9709331 474.838007,36.5322132 C476.581919,36.0934934 478.353224,35.6218766 480.151975,35.1173488 C481.950726,34.612821 483.705579,34.1083008 485.416587,33.603773 L485.811433,34.9857335 Z M549.348716,34.9528297 C547.615772,35.4573575 545.844467,35.9673617 544.034748,36.4828575 C542.225029,36.9983533 540.442756,37.475454 538.687877,37.9141738 C536.932997,38.3528937 535.232984,38.7367678 533.587784,39.0658076 C531.942585,39.3948475 530.418056,39.625172 529.014153,39.7567879 C528.904473,39.7787239 528.805762,39.7896918 528.718018,39.7896918 L528.421884,39.7896918 C527.654124,39.7896918 526.902828,39.64711 526.167972,39.3619421 C525.433116,39.0767742 524.78053,38.6819322 524.210195,38.1774044 C523.903091,37.8922365 523.623411,37.5686855 523.371147,37.2067416 C523.118883,36.8447978 522.95985,36.4773754 522.894042,36.1044635 C522.784362,36.3238235 522.652748,36.5322123 522.499196,36.7296362 C522.345644,36.9270601 522.181126,37.1135132 522.005638,37.2890012 C521.172071,38.0567609 520.195934,38.6654755 519.077198,39.1151634 C517.958462,39.5648512 516.828776,39.7896918 515.688104,39.7896918 C514.371945,39.7896918 513.269678,39.4825925 512.38127,38.8683847 C511.492862,38.2541769 510.906083,37.4096539 510.620915,36.3347903 C510.357684,35.3476707 510.330264,34.3715337 510.538656,33.40635 C510.747048,32.4411664 511.169309,31.4979329 511.805453,30.5766212 C511.959005,30.3572613 512.156426,30.1324207 512.397722,29.9020928 C512.639018,29.6717649 512.896762,29.4469244 513.170962,29.2275644 C513.445162,29.0082045 513.735809,28.8052996 514.042913,28.6188437 C514.350017,28.4323878 514.646148,28.2733542 514.931316,28.1417383 C512.606101,28.3830342 510.291889,28.717553 507.98861,29.1453049 C505.68533,29.5730567 503.398538,30.0666091 501.128162,30.6259769 C498.857787,31.1853447 496.609382,31.7830915 494.382879,32.4192353 C492.156375,33.0553791 489.979261,33.6915133 487.85147,34.3276571 C487.500494,34.437337 487.155007,34.5415314 486.814999,34.6402434 C486.474991,34.7389554 486.129505,34.8431498 485.778529,34.9528297 L485.350779,33.5708691 C485.723691,33.4611892 486.080145,33.3569948 486.420153,33.2582828 C486.760161,33.1595708 487.105648,33.0553764 487.456624,32.9456965 C489.979263,32.1998728 492.479928,31.4759959 494.958695,30.7740441 C497.437463,30.0720924 499.949096,29.4359582 502.493671,28.8656224 C505.038246,28.2952866 507.637622,27.8181859 510.291877,27.4343061 C512.946132,27.0504262 515.710026,26.80365 518.583641,26.69397 L518.978487,26.69397 C520.426262,26.69397 521.621756,27.0668763 522.565003,27.8127 C523.376635,28.4488438 523.914059,29.2933668 524.177291,30.3462944 L524.999886,30.5437174 C524.956014,30.6533973 524.917627,30.7740435 524.884723,30.9056594 C524.851819,31.0372754 524.813432,31.1798572 524.76956,31.3334091 C524.616008,31.794065 524.462458,32.3260048 524.308906,32.9292446 C524.155354,33.5324844 524.078579,34.1521668 524.078579,34.7883106 C524.078579,35.3586464 524.199225,35.8302631 524.440521,36.203175 C524.681817,36.5760869 524.92311,36.8831862 525.164405,37.1244821 C525.646997,37.5632019 526.222808,37.8922368 526.891856,38.1115968 C527.560904,38.3309567 528.21349,38.4077315 528.849634,38.3419235 C530.231601,38.2103076 531.734194,37.9799831 533.357457,37.6509432 C534.980721,37.3219034 536.658799,36.9380293 538.391742,36.4993094 C540.124686,36.0605896 541.885023,35.5889728 543.672806,35.084445 C545.460589,34.5799172 547.209959,34.0753969 548.920966,33.5708691 L549.348716,34.9528297 Z M521.018524,36.2360788 C521.939835,35.3367032 522.543066,34.2837913 522.828234,33.0773118 C522.828234,33.0334398 522.833718,32.9950524 522.844686,32.9621484 C522.855654,32.9292444 522.861138,32.890857 522.861138,32.846985 C522.926946,32.4082652 522.948881,32.0134232 522.926945,31.6624474 C522.883073,30.4779038 522.466296,29.5675738 521.6766,28.93143 C521.01852,28.4049662 520.119158,28.1417383 518.978487,28.1417383 C517.859751,28.1417383 516.817807,28.3830306 515.852623,28.8656224 C515.523583,29.0411103 515.095838,29.3317578 514.569374,29.7375737 C514.04291,30.1433896 513.549358,30.6479098 513.088702,31.2511496 C512.628046,31.8543894 512.271592,32.5563306 512.019328,33.3569943 C511.767064,34.157658 511.76158,35.0186328 512.002876,35.9399444 C512.134492,36.4664082 512.359333,36.8886697 512.677404,37.2067416 C512.995476,37.5248135 513.340963,37.7661058 513.713875,37.9306257 C514.086787,38.0951457 514.448725,38.1993401 514.799701,38.2432121 C515.150677,38.287084 515.446808,38.3090197 515.688104,38.3090197 C516.653288,38.3090197 517.607489,38.1225666 518.550737,37.7496547 C519.493985,37.3767428 520.316572,36.8722226 521.018524,36.2360788 L521.018524,36.2360788 Z M612.951806,34.9199259 C611.811135,35.2489658 610.489511,35.5889685 608.986896,35.9399444 C607.48428,36.2909203 605.899429,36.6309231 604.232293,36.9599629 C602.565158,37.2890028 600.865144,37.601586 599.132201,37.8977219 C597.399257,38.1938578 595.737631,38.4625697 594.147271,38.7038656 C592.556912,38.9451615 591.087222,39.1590342 589.738159,39.3454901 C588.389095,39.5319461 587.253925,39.669044 586.332613,39.7567879 C585.784213,39.7567879 585.241306,39.685497 584.703874,39.5429131 C584.166442,39.4003291 583.634502,39.0987138 583.108039,38.6380579 C582.603511,38.1554661 582.181249,37.5741711 581.841241,36.8941553 C581.501233,36.2141395 581.287361,35.4902627 581.199617,34.722503 C580.958321,35.1612228 580.684125,35.599936 580.377021,36.0386559 C580.069917,36.4773757 579.729914,36.8831855 579.357003,37.2560974 C578.523435,38.0238571 577.547298,38.6380556 576.428562,39.0987115 C575.309827,39.5593673 574.18014,39.7896918 573.039469,39.7896918 C571.723309,39.7896918 570.615558,39.4825925 569.716182,38.8683847 C568.816807,38.2541769 568.224544,37.3986861 567.939376,36.3018865 C567.69808,35.3147668 567.681628,34.3386298 567.89002,33.3734462 C568.098412,32.4082625 568.520674,31.465029 569.156817,30.5437174 C569.463921,30.1269335 569.836828,29.7320916 570.275547,29.3591797 C570.714267,28.9862679 571.163948,28.6462651 571.624604,28.3391612 C570.264573,28.5146491 568.981336,28.7285219 567.774857,28.9807858 C566.568377,29.2330497 565.405787,29.5236972 564.287051,29.8527371 C563.168316,30.181777 562.071533,30.5382315 560.996669,30.9221113 C559.921806,31.3059912 558.846958,31.6953492 557.772094,32.0901971 C556.565615,32.5289169 555.276895,32.9895658 553.905895,33.4721577 C552.534896,33.9547495 551.015851,34.4373341 549.348716,34.9199259 L548.95387,33.5708691 C550.599069,33.0663413 552.08521,32.5837567 553.412338,32.1231009 C554.739465,31.6624451 556.028186,31.2017961 557.278537,30.7411403 C558.770185,30.1927405 560.278261,29.6717685 561.802813,29.1782087 C563.327364,28.6846489 564.879312,28.2569035 566.458704,27.8949596 C568.038095,27.5330157 569.644883,27.2423682 571.279114,27.0230083 C572.913345,26.8036483 574.596908,26.69397 576.329851,26.69397 C577.799562,26.69397 578.995056,27.0559085 579.916368,27.7797962 C580.289279,28.0869001 580.618314,28.4872259 580.903482,28.9807858 C581.18865,29.4743456 581.397039,29.9733819 581.528655,30.4779097 C581.769951,28.8327103 582.049631,27.2094713 582.367702,25.6081439 C582.685774,24.0068164 583.009325,22.3835774 583.338365,20.738378 C583.579661,19.5977064 583.848373,18.3693093 584.144509,17.0531498 C584.440645,15.7369902 584.758712,14.4153665 585.09872,13.088239 C585.438728,11.7611115 585.80615,10.4559396 586.200998,9.17268404 C586.595846,7.88942851 587.029075,6.70490271 587.500699,5.61907111 C587.972323,4.53323951 588.476843,3.57903817 589.014275,2.75643847 C589.551707,1.93383877 590.127518,1.31415629 590.741726,0.897372446 C591.202381,0.590268558 591.602707,0.453170665 591.942715,0.486074653 C592.282723,0.518978641 592.540467,0.590269545 592.715955,0.699949505 C593.154675,0.941245417 593.500161,1.3525391 593.752425,1.93384288 C594.004689,2.51514667 594.130819,3.2225718 594.130819,4.0561395 C594.130819,4.56066731 594.026625,5.22422112 593.818233,6.04682082 C593.609841,6.86942051 593.341129,7.77975053 593.012089,8.77783816 C592.683049,9.7759258 592.310143,10.8178698 591.893359,11.9037014 C591.476576,12.989533 591.054314,14.0534126 590.626562,15.0953723 C590.19881,16.1373319 589.782033,17.1189528 589.376217,18.0402645 C588.970401,18.9615761 588.624914,19.7402922 588.339746,20.3764359 C587.352627,22.5261631 586.381974,24.5990833 585.427758,26.5952586 C584.473542,28.5914338 583.579664,30.3682225 582.746096,31.925678 C582.702224,32.3424618 582.663837,32.7153681 582.630933,33.044408 C582.598029,33.3734478 582.581577,33.6586115 582.581577,33.8999074 C582.581577,34.3605632 582.658352,34.8650834 582.811904,35.4134832 C582.965456,35.961883 583.195781,36.4554355 583.502884,36.8941553 C583.809988,37.3328751 584.188378,37.6948136 584.638066,37.9799815 C585.087754,38.2651494 585.608726,38.3748277 586.200998,38.3090197 C587.100374,38.2212757 588.219092,38.0896618 589.557188,37.9141738 C590.895283,37.7386859 592.354005,37.5302971 593.933396,37.2890012 C595.512788,37.0477053 597.157963,36.7789934 598.86897,36.4828575 C600.579977,36.1867216 602.258056,35.8796223 603.903255,35.5615504 C605.548454,35.2434786 607.116854,34.9144436 608.608502,34.5744357 C610.100149,34.2344279 611.405321,33.899909 612.524057,33.5708691 L612.951806,34.9199259 Z M584.75323,21.0345124 C584.511934,22.2848639 584.237738,23.5297128 583.930634,24.7690964 C583.62353,26.0084799 583.349334,27.2862323 583.108039,28.6023918 C583.766118,27.1765523 584.457092,25.6520237 585.180979,24.0287603 C585.904867,22.4054969 586.62326,20.7658061 587.33618,19.1096387 C588.0491,17.4534713 588.729105,15.8302323 589.376217,14.2398729 C590.023329,12.6495134 590.588172,11.1853079 591.070764,9.84721242 C591.553356,8.50911691 591.942714,7.33555895 592.23885,6.32650331 C592.534985,5.31744768 592.683051,4.56066731 592.683051,4.0561395 C592.683051,3.90258755 592.672083,3.68323092 592.650147,3.39806303 C592.628211,3.11289513 592.578856,2.85515109 592.50208,2.62482318 C592.425304,2.39449526 592.310142,2.21352604 592.15659,2.08191009 C592.003038,1.95029414 591.794649,1.95029414 591.531417,2.08191009 C590.983018,2.45482195 590.467529,3.03063311 589.984938,3.80936082 C589.502346,4.58808854 589.047181,5.50938638 588.619429,6.57328199 C588.191677,7.6371776 587.791351,8.78879991 587.418439,10.0281835 C587.045528,11.267567 586.700041,12.5288676 586.381969,13.8121231 C586.063897,15.0953787 585.767766,16.3621632 585.493566,17.6125148 C585.219366,18.8628663 584.97259,20.0035208 584.75323,21.0345124 L584.75323,21.0345124 Z M578.369888,36.203175 C578.808608,35.7644552 579.197966,35.2270314 579.537974,34.5908877 C579.877982,33.9547439 580.108306,33.296674 580.228954,32.6166583 C580.349602,31.9366425 580.327666,31.2676048 580.163146,30.609525 C579.998626,29.9514453 579.620236,29.381118 579.027964,28.8985262 C578.326013,28.3720624 577.42665,28.1088344 576.329851,28.1088344 C575.189179,28.1088344 574.136267,28.3610946 573.171084,28.8656224 C572.842044,29.0411103 572.414299,29.3317578 571.887835,29.7375737 C571.361371,30.1433896 570.867818,30.6479098 570.407163,31.2511496 C569.946507,31.8543894 569.590052,32.5563306 569.337788,33.3569943 C569.085524,34.157658 569.080041,35.0186328 569.321336,35.9399444 C569.452952,36.4664082 569.677793,36.8886697 569.995865,37.2067416 C570.313937,37.5248135 570.659423,37.7661058 571.032335,37.9306257 C571.405247,38.0951457 571.77267,38.1993401 572.134613,38.2432121 C572.496557,38.287084 572.798173,38.3090197 573.039469,38.3090197 C574.004652,38.3090197 574.958854,38.1225666 575.902101,37.7496547 C576.845349,37.3767428 577.667936,36.8612548 578.369888,36.203175 L578.369888,36.203175 Z M676.587801,34.9528297 C675.096153,35.3915496 673.538721,35.7809076 671.915458,36.1209154 C670.292195,36.4609233 668.625084,36.7460869 666.914077,36.9764149 C665.203069,37.2067428 663.48112,37.3822281 661.748177,37.502876 C660.015233,37.623524 658.293284,37.6838471 656.582276,37.6838471 C653.796405,37.6838471 651.504129,37.3877156 649.705377,36.7954438 C649.639569,36.8831878 649.568278,36.9709304 649.491502,37.0586744 C649.414726,37.1464184 649.3215,37.234161 649.21182,37.321905 C648.400188,38.0896647 647.429535,38.6983794 646.299831,39.1480672 C645.170128,39.597755 644.034957,39.8225956 642.894286,39.8225956 C641.578126,39.8225956 640.475859,39.5154963 639.587451,38.9012885 C638.699044,38.2870808 638.112265,37.4425577 637.827097,36.3676941 C637.563865,35.3805745 637.536445,34.3989536 637.744837,33.4228019 C637.953229,32.4466503 638.375491,31.4979329 639.011635,30.5766212 C639.165186,30.3572613 639.368091,30.1269368 639.620355,29.8856409 C639.872619,29.644345 640.146815,29.4140205 640.442951,29.1946606 C640.739087,28.9753007 641.035218,28.7778797 641.331354,28.6023918 C641.62749,28.4269039 641.896202,28.284322 642.137498,28.1746421 C639.812283,28.415938 637.49807,28.7504569 635.194791,29.1782087 C632.891512,29.6059605 630.604719,30.099513 628.334344,30.6588808 C626.063969,31.2182486 623.815563,31.8159954 621.58906,32.4521391 C619.362557,33.0882829 617.174474,33.7244171 615.024747,34.3605609 L612.951806,34.9528297 L612.524057,33.603773 C612.896969,33.494093 613.253423,33.3898986 613.593431,33.2911866 C613.933439,33.1924747 614.278925,33.0882803 614.629901,32.9786003 C617.15254,32.2327766 619.647722,31.5088997 622.115521,30.806948 C624.58332,30.1049962 627.073018,29.468862 629.584689,28.8985262 C632.09636,28.3281904 634.673801,27.8510897 637.317088,27.4672099 C639.960375,27.08333 642.718784,26.8365538 645.592399,26.7268739 L646.184668,26.7268739 C647.676316,26.7268739 648.871809,27.0888123 649.771185,27.8127 C650.341521,28.2514199 650.77475,28.7998114 651.070886,29.4578912 C651.367022,30.115971 651.537023,30.8398478 651.580895,31.6295435 C651.624767,32.3095593 651.55896,32.9840809 651.383472,33.6531287 C651.207984,34.3221764 650.944756,34.9637946 650.59378,35.5780024 C652.23898,36.0167222 654.235125,36.2360788 656.582276,36.2360788 C658.249412,36.2360788 659.938458,36.1757558 661.649465,36.0551078 C663.360472,35.9344598 665.049519,35.7644585 666.716654,35.5450985 C668.383789,35.3257386 670.017996,35.0515428 671.619324,34.722503 C673.220651,34.3934631 674.74518,34.009589 676.192955,33.5708691 L676.587801,34.9528297 Z M646.480802,31.3992168 C646.480802,33.0224802 647.391132,34.2399095 649.21182,35.0515412 C649.891836,34.0205496 650.209903,32.9018308 650.166031,31.6953512 C650.144095,31.2566314 650.072804,30.8617894 649.952156,30.5108136 C649.831508,30.1598377 649.672474,29.8417706 649.47505,29.5566027 C649.343434,29.4249867 649.096658,29.2988567 648.734714,29.1782087 C648.372771,29.0575607 648.005348,29.0849803 647.632436,29.2604683 C647.369204,29.3920842 647.11146,29.6224087 646.859196,29.9514486 C646.606933,30.2804884 646.480802,30.763073 646.480802,31.3992168 L646.480802,31.3992168 Z M642.894286,38.3419235 C643.859469,38.3419235 644.813671,38.1554704 645.756918,37.7825585 C646.700166,37.4096467 647.522753,36.8941586 648.224705,36.2360788 C648.246641,36.2360788 648.257609,36.225111 648.257609,36.203175 C646.107882,35.1283114 645.033034,33.527008 645.033034,31.3992168 C645.033034,31.0263049 645.093357,30.6588826 645.214005,30.2969387 C645.334653,29.9349948 645.510139,29.6059599 645.740466,29.309824 C645.970794,29.0136881 646.250474,28.7778797 646.579514,28.6023918 C646.908554,28.4269039 647.270492,28.3391612 647.66534,28.3391612 C647.380172,28.2733532 647.089525,28.223998 646.793389,28.191094 C646.497253,28.15819 646.294348,28.1417383 646.184668,28.1417383 C645.065932,28.1417383 644.023988,28.3939984 643.058805,28.8985262 C642.729765,29.0740141 642.30202,29.3646617 641.775556,29.7704775 C641.249092,30.1762934 640.755539,30.6808136 640.294884,31.2840534 C639.834228,31.8872932 639.477773,32.5892344 639.225509,33.3898981 C638.973245,34.1905618 638.967762,35.0515366 639.209057,35.9728482 C639.340673,36.4993121 639.565514,36.9215736 639.883586,37.2396454 C640.201658,37.5577173 640.547144,37.7990096 640.920056,37.9635296 C641.292968,38.1280495 641.654907,38.2322439 642.005882,38.2761159 C642.356858,38.3199879 642.65299,38.3419235 642.894286,38.3419235 L642.894286,38.3419235 Z M720.580213,39.8554994 C720.141493,39.8554994 719.631489,39.8280798 719.050185,39.7732399 C718.468881,39.7183999 717.865651,39.6087216 717.240475,39.4442016 C716.615299,39.2796817 715.995617,39.0493572 715.381409,38.7532213 C714.767201,38.4570854 714.218809,38.0567596 713.736218,37.5522318 C712.310378,36.1702643 711.718115,34.2618616 711.959411,31.8269665 C712.003283,31.3005027 712.085542,30.6972719 712.20619,30.0172562 C712.326838,29.3372404 712.452968,28.7120741 712.584584,28.1417383 L706.398665,28.1746421 C705.762521,28.328194 704.917998,28.5146472 703.865071,28.7340071 C702.812143,28.953367 701.594714,29.2056271 700.212746,29.490795 C698.611419,29.8198349 696.829146,30.1872573 694.865875,30.5930731 C692.902604,30.998889 690.884523,31.4376022 688.811571,31.909226 C686.73862,32.3808499 684.660216,32.8744023 682.576297,33.3898981 C680.492378,33.9053939 678.518168,34.4373337 676.653609,34.9857335 L676.225859,33.603773 C678.090418,33.0553732 680.075596,32.5179494 682.181451,31.9914856 C684.287306,31.4650218 686.382162,30.9659855 688.466081,30.4943616 C690.55,30.0227378 692.579049,29.5840246 694.553289,29.1782087 C696.527528,28.7723928 698.326252,28.4049705 699.949516,28.0759306 C701.353419,27.7907627 702.5873,27.5385026 703.651196,27.3191427 C704.715091,27.0997828 705.543163,26.9133296 706.135434,26.7597777 L706.201242,26.7268739 L714.427198,26.69397 L714.196871,27.6152771 C714.131063,27.834637 714.059772,28.1198006 713.982996,28.4707765 C713.90622,28.8217524 713.829445,29.2001426 713.75267,29.6059584 C713.675894,30.0117743 713.604603,30.417584 713.538795,30.8233999 C713.472987,31.2292157 713.429115,31.6076059 713.407179,31.9585818 C713.209755,33.9328211 713.659437,35.4573496 714.756236,36.5322132 C715.304636,37.102549 715.957222,37.5193266 716.714014,37.7825585 C717.470805,38.0457904 718.20565,38.2212757 718.91857,38.3090197 C719.63149,38.3967637 720.251172,38.4296672 720.777636,38.4077312 C721.3041,38.3857952 721.633135,38.3748274 721.764751,38.3748274 C723.84867,38.1554674 725.987397,37.7386898 728.180996,37.1244821 C730.374595,36.5102743 732.633969,35.8302687 734.959184,35.084445 C735.748879,34.8431491 736.549531,34.5963729 737.361163,34.344109 C738.172795,34.0918451 738.995382,33.8450689 739.82895,33.603773 L740.223795,34.9857335 C738.578596,35.4902614 736.966325,35.9838138 735.386933,36.4664056 C733.017846,37.2122293 730.720086,37.8977188 728.493582,38.5228946 C726.267079,39.1480703 724.068029,39.5703318 721.896366,39.7896918 C721.786686,39.8116278 721.616684,39.8280795 721.386357,39.8390475 C721.156029,39.8500155 720.887317,39.8554994 720.580213,39.8554994 L720.580213,39.8554994 Z M804.997437,33.4052734 C803.264493,33.9098013 800.25683,35.9673617 798.447111,36.4828575 C796.637392,36.9983533 794.855119,37.475454 793.10024,37.9141738 C791.34536,38.3528937 789.645347,38.7367678 788.000147,39.0658076 C786.354948,39.3948475 784.830419,39.625172 783.426516,39.7567879 C783.316836,39.7787239 783.218125,39.7896918 783.130381,39.7896918 L782.834247,39.7896918 C782.066487,39.7896918 781.315191,39.64711 780.580335,39.3619421 C779.845479,39.0767742 779.192893,38.6819322 778.622557,38.1774044 C778.315454,37.8922365 778.035774,37.5686855 777.78351,37.2067416 C777.531246,36.8447978 777.372212,36.4773754 777.306405,36.1044635 C777.196725,36.3238235 777.065111,36.5322123 776.911559,36.7296362 C776.758007,36.9270601 776.593489,37.1135132 776.418001,37.2890012 C775.584434,38.0567609 774.608297,38.6654755 773.489561,39.1151634 C772.370825,39.5648512 771.241139,39.7896918 770.100467,39.7896918 C768.784308,39.7896918 767.682041,39.4825925 766.793633,38.8683847 C765.905225,38.2541769 765.318446,37.4096539 765.033278,36.3347903 C764.770046,35.3476707 764.742627,34.3715337 764.951019,33.40635 C765.159411,32.4411664 765.581672,31.4979329 766.217816,30.5766212 C766.371368,30.3572613 766.568789,30.1324207 766.810085,29.9020928 C767.051381,29.6717649 767.309125,29.4469244 767.583325,29.2275644 C767.857525,29.0082045 768.148172,28.8052996 768.455276,28.6188437 C768.76238,28.4323878 769.058511,28.2733542 769.343679,28.1417383 C767.018464,28.3830342 764.704252,28.717553 762.400972,29.1453049 C760.097693,29.5730567 757.8109,30.0666091 755.540525,30.6259769 C753.27015,31.1853447 751.021745,31.7830915 748.795241,32.4192353 C746.568738,33.0553791 744.391624,33.6915133 742.263833,34.3276571 C741.912857,34.437337 741.56737,34.5415314 741.227362,34.6402434 C740.887354,34.7389554 740.541868,34.8431498 740.190892,34.9528297 L739.763142,33.5708691 C740.136054,33.4611892 740.492508,33.3569948 740.832516,33.2582828 C741.172524,33.1595708 741.518011,33.0553764 741.868987,32.9456965 C744.391626,32.1998728 746.892291,31.4759959 749.371058,30.7740441 C751.849825,30.0720924 754.361459,29.4359582 756.906034,28.8656224 C759.450609,28.2952866 762.049985,27.8181859 764.70424,27.4343061 C767.358495,27.0504262 770.122389,26.80365 772.996004,26.69397 L773.39085,26.69397 C774.838625,26.69397 776.034119,27.0668763 776.977366,27.8127 C777.788998,28.4488438 778.326422,29.2933668 778.589654,30.3462944 L779.412249,30.5437174 C779.368377,30.6533973 779.32999,30.7740435 779.297086,30.9056594 C779.264182,31.0372754 779.225794,31.1798572 779.181922,31.3334091 C779.02837,31.794065 778.874821,32.3260048 778.721269,32.9292446 C778.567717,33.5324844 778.490942,34.1521668 778.490942,34.7883106 C778.490942,35.3586464 778.611588,35.8302631 778.852884,36.203175 C779.09418,36.5760869 779.335472,36.8831862 779.576768,37.1244821 C780.05936,37.5632019 780.635171,37.8922368 781.304219,38.1115968 C781.973267,38.3309567 782.625853,38.4077315 783.261997,38.3419235 C784.643964,38.2103076 786.146557,37.9799831 787.76982,37.6509432 C789.393084,37.3219034 791.071162,36.9380293 792.804105,36.4993094 C794.537049,36.0605896 796.297386,35.5889728 798.085169,35.084445 C799.872952,34.5799172 802.69329,32.5800893 804.404297,32.0755615 L804.997437,33.4052734 Z M775.430887,36.2360788 C776.352198,35.3367032 776.955429,34.2837913 777.240597,33.0773118 C777.240597,33.0334398 777.246081,32.9950524 777.257049,32.9621484 C777.268017,32.9292444 777.273501,32.890857 777.273501,32.846985 C777.339309,32.4082652 777.361244,32.0134232 777.339308,31.6624474 C777.295436,30.4779038 776.878659,29.5675738 776.088963,28.93143 C775.430883,28.4049662 774.531521,28.1417383 773.39085,28.1417383 C772.272114,28.1417383 771.23017,28.3830306 770.264986,28.8656224 C769.935946,29.0411103 769.508201,29.3317578 768.981737,29.7375737 C768.455273,30.1433896 767.961721,30.6479098 767.501065,31.2511496 C767.040409,31.8543894 766.683955,32.5563306 766.431691,33.3569943 C766.179427,34.157658 766.173943,35.0186328 766.415239,35.9399444 C766.546855,36.4664082 766.771695,36.8886697 767.089767,37.2067416 C767.407839,37.5248135 767.753326,37.7661058 768.126238,37.9306257 C768.49915,38.0951457 768.861088,38.1993401 769.212064,38.2432121 C769.56304,38.287084 769.859171,38.3090197 770.100467,38.3090197 C771.065651,38.3090197 772.019852,38.1225666 772.9631,37.7496547 C773.906347,37.3767428 774.728935,36.8722226 775.430887,36.2360788 L775.430887,36.2360788 Z" id="erinadora" fill="#323232"></path>
                <polyline id="Path-1" stroke="#323232" stroke-width="1.4" points="222.796875 34.453125 79.8126882 34.453125 79.8126882 216.234923 951.525407 216.234923 951.525407 32.7734083 804.374255 32.7734083"></polyline>
            </g>
        </g>
    </g>
</svg>