<?xml version="1.0" encoding="UTF-8" standalone="no"?>
<svg width="1403px" height="777px" viewBox="0 0 1403 777" version="1.1" xmlns="http://www.w3.org/2000/svg" xmlns:xlink="http://www.w3.org/1999/xlink">

    <title>Thunderbird</title>
    <defs>
        <circle id="path-1" cx="702" cy="21" r="21"></circle>
        <mask id="mask-2" maskContentUnits="userSpaceOnUse" maskUnits="objectBoundingBox" x="0" y="0" width="42" height="42" fill="white">
            <use xlink:href="#path-1"></use>
        </mask>
    </defs>
    <g id="Page-1" stroke="none" stroke-width="1" fill="none" fill-rule="evenodd">
        <g id="Group-8" transform="translate(4.000000, 0.000000)">
            <g id="Group-7">
                <g id="Group-6">
                    <g id="Group-5" transform="translate(0.000000, 53.000000)" stroke-linecap="round" stroke-width="8" stroke-linejoin="round">
                        <g id="Group-4">
                            <g id="Group" transform="translate(0.000000, 130.000000)">
                                <g id="Group-10" transform="translate(547.000000, 0.000000)">
                                    <ellipse id="Oval-1" stroke="#323232" fill="#FFFFFF" cx="157.299991" cy="156.903218" rx="111.976265" ry="111.903218"></ellipse>
                                    <ellipse id="Oval-1" stroke="#FFFFFF" fill="#FFFFFF" cx="157.299991" cy="156.903218" rx="157.005639" ry="156.903218"></ellipse>
                                    <ellipse id="Oval-1" stroke="#323232" fill="#FFFFFF" cx="157.299991" cy="156.903218" rx="111.976265" ry="111.903218"></ellipse>
                                    <path d="M266.62476,177.879159 C255.513428,127.769598 210.785995,90.2941595 157.299991,90.2941595 C103.078162,90.2941595 57.8575509,128.807814 47.5357869,179.954389" id="Oval-1" stroke="#323232"></path>
                                </g>
                                <g id="Group-2" transform="translate(0.000000, 128.000000)" stroke="#323232"  stroke-width="9" stroke-miterlimit="10">
                                    <path d="M816.143549,177.60733 L765.49494,289.887356" id="Path-2" transform="translate(790.819244, 233.747343) scale(-1, 1) translate(-790.819244, -233.747343) " class="path"></path>
                                    <path d="M779.792158,179.60733 L743.287097,326" id="Path-2" transform="translate(761.643549, 253.107330) scale(-1, 1) translate(-761.643549, -253.107330) " class="path"></path>
                                    <path d="M746.648609,186 L720.648609,409" id="Path-2" transform="translate(733.500000, 297.500000) scale(-1, 1) translate(-733.500000, -297.500000) " class="path"></path>
                                    <path d="M983.319782,140 L816,218" id="Path-2" transform="translate(900.000000, 179.000000) scale(-1, 1) translate(-900.000000, -179.000000) " class="path"></path>
                                    <path class="line path" d="M1050.96311,122.329843 L830.315385,206.000001" id="Path-2" transform="translate(940.657693, 164.329843) scale(-1, 1) translate(-940.657693, -164.329843) "></path>
                                    <path class="line path" d="M1115.97473,101.324607 L848.204545,188.999999" id="Path-2" transform="translate(982.102273, 145.324607) scale(-1, 1) translate(-982.102273, -145.324607) "></path>
                                    <path class="line path" d="M1193.97473,81 L852.204545,170" id="Path-2" transform="translate(1023.102273, 125.500000) scale(-1, 1) translate(-1023.102273, -125.500000) "></path>
                                    <path class="line path" d="M1281.67045,61.3193717 L859,146.999998" id="Path-2" transform="translate(1070.500000, 103.819372) scale(-1, 1) translate(-1070.500000, -103.819372) "></path>
                                    <path class="line path" d="M1334.9425,42 L862,119" id="Path-2" transform="translate(1098.500000, 80.000000) scale(-1, 1) translate(-1098.500000, -80.000000) " ></path>
                                    <path class="line" d="M576.963113,124.329843 L356.315385,208.000001" id="Path-2"></path>
                                    <path class="line" d="M592.319782,146 L425,224" id="Path-2"></path>
                                    <path class="line" d="M563.974731,101.324607 L296.204545,188.999999" id="Path-2"></path>
                                    <path class="line" d="M552.974731,81 L211.204545,170" id="Path-2"></path>
                                    <path class="line" d="M547.670455,61.3193717 L125,146.999998" id="Path-2"></path>
                                    <path class="line" d="M1381.9425,24 L862,76" id="Path-2" transform="translate(1122.000000, 49.500000) scale(-1, 1) translate(-1122.000000, -49.500000) "></path>
                                    <path class="line" d="M1395,33 L860,5" id="Path-2"></path>
                                    <path class="line path" d="M542.942496,20 L23,72" id="Path-2"></path>
                                    <path class="line" d="M544,41 L0,0" id="Path-2" transform="translate(272.000000, 20.500000) scale(-1, 1) translate(-272.000000, -20.500000) "></path>
                                    <path class="line" d="M545.942496,40 L73,117" id="Path-2"></path>
                                </g>
                                <g id="Group-2" transform="translate(609.500000, 413.500000) scale(-1, 1) translate(-609.500000, -413.500000) translate(534.000000, 290.000000)" stroke="#323232">
                                    <path d="M96.1435486,15.6073298 L45.4949396,127.887356" id="Path-2" transform="translate(70.819244, 71.747343) scale(-1, 1) translate(-70.819244, -71.747343) "></path>
                                    <path d="M59.7921576,23.6073298 L23.2870973,170" id="Path-2" transform="translate(41.643549, 97.107330) scale(-1, 1) translate(-41.643549, -97.107330) "></path>
                                    <path d="M26.648609,24 L0.648608983,247" id="Path-2" transform="translate(13.500000, 135.500000) scale(-1, 1) translate(-13.500000, -135.500000) "></path>
                                </g>
                                <path d="M703.937273,314.183246 L703.937272,589.118244" id="Path-10" stroke="#323232"></path>
                            </g>
                            <polygon id="Triangle-1" stroke="#000000" points="702.5 0 772 139 633 139"></polygon>
                        </g>
                    </g>
                    <path d="M630,145 L781.5,145" id="Path-113" stroke="#323232" stroke-width="8" stroke-linecap="round" stroke-linejoin="round"></path>
                    <use id="Oval-14" stroke="#000000" mask="url(#mask-2)" stroke-width="16" xlink:href="#path-1"></use>
                </g>
            </g>
        </g>
    </g>
</svg>
